<?xml version="1.0" encoding="UTF-8"?>
<svg id="Layer_1" xmlns="http://www.w3.org/2000/svg" version="1.1" viewBox="0 0 1920 1080">
  <!-- Generator: Adobe Illustrator 30.2.1, SVG Export Plug-In . SVG Version: 2.1.1 Build 1)  -->
  <path d="M572.02,851.2l7.65-56.8c37.93,17.94,75.3,26.91,112.12,26.91,73.86,0,110.79-39.09,110.79-117.26v-56.8c-24.18,50.49-63.88,75.74-119.1,75.74-43.25,0-77.63-15.72-103.13-47.17-25.51-31.44-38.26-73.85-38.26-127.22s14.52-99.65,43.58-134.2c29.05-34.55,66.65-51.82,112.78-51.82,40.37,0,75.07,16.39,104.13,49.16v-41.19h65.87v262.42c0,56.47-2.94,98.27-8.82,125.4-5.88,27.12-16.92,49.33-33.1,66.6-28.61,30.34-73.08,45.51-133.41,45.51-42.14,0-82.51-6.43-121.1-19.27ZM802.57,606.39v-149.81c-28.83-29.9-60.22-44.84-94.15-44.84-30.16,0-53.78,12.07-70.86,36.21-17.08,24.14-25.62,57.25-25.62,99.32,0,79.06,27.83,118.59,83.5,118.59,37.93,0,73.63-19.82,107.13-59.46Z"/>
  <rect x="939.11" y="362.57" width="62.06" height="358.18"/>
  <path d="M1212.54,720.75c-48.94,0-88-16.22-117.19-48.67-29.19-32.45-43.79-75.87-43.79-130.26s14.65-98.55,43.95-130.58c29.3-32.02,69.04-48.04,119.24-48.04s89.94,16.02,119.24,48.04c29.3,32.03,43.95,75.34,43.95,129.95s-14.7,99.76-44.1,131.68c-29.41,31.93-69.83,47.88-121.29,47.88ZM1213.48,674.12c65.73,0,98.6-44.31,98.6-132.94s-32.45-131.37-97.34-131.37-97.03,44-97.03,132,31.92,132.31,95.77,132.31Z"/>
  <path d="M759.01,610.32c-14.73-14.73-13.95-20.08-7.49-26.54s10.04.58,24.77,15.31c1.08,1.08,2.01,2.18,3,3.28,2.59-5.68,4.12-11.94,4.12-18.59,0-24.85-20.14-44.99-44.99-44.99s-44.99,20.14-44.99,44.99,20.14,44.99,44.99,44.99c6.21,0,18.23-13.42,23.61-15.7-1.01-.92-2.03-1.77-3.02-2.76Z"/>
  <path d="M1265.85,610.32c-14.73-14.73-13.95-20.08-7.49-26.54s10.04.58,24.77,15.31c1.08,1.08,2.01,2.18,3,3.28,2.59-5.68,4.12-11.94,4.12-18.59,0-24.85-20.14-44.99-44.99-44.99s-44.99,20.14-44.99,44.99,20.14,44.99,44.99,44.99c6.21,0,18.23-13.42,23.61-15.7-1.01-.92-2.03-1.77-3.02-2.76Z"/>
  <circle cx="970.14" cy="265.11" r="55.58"/>
</svg>